<?xml version="1.0" standalone="no"?><!DOCTYPE svg PUBLIC "-//W3C//DTD SVG 1.1//EN" "http://www.w3.org/Graphics/SVG/1.1/DTD/svg11.dtd"><svg t="1591267238119" class="icon" viewBox="0 0 1024 1024" version="1.1" xmlns="http://www.w3.org/2000/svg" p-id="13817" xmlns:xlink="http://www.w3.org/1999/xlink" width="200" height="200"><defs><style type="text/css"></style></defs><path d="M1012.778082 499.375342l-235.660274-406.79452c-5.610959-11.221918-18.235616-16.832877-30.860274-16.832877H277.742466c-12.624658 0-23.846575 7.013699-30.860274 16.832877L11.221918 499.375342c-5.610959 11.221918-5.610959 23.846575 0 35.068494l235.660274 406.79452c5.610959 11.221918 18.235616 16.832877 30.860274 16.832877h469.917808c12.624658 0 23.846575-7.013699 30.860274-16.832877l235.660274-406.79452c4.208219-11.221918 4.208219-23.846575-1.40274-35.068494zM726.619178 887.934247H297.380822L82.761644 516.208219l214.619178-371.726027h429.238356l214.619178 371.726027-214.619178 371.726028z" p-id="13818" fill="#13227a"></path><path d="M634.038356 308.60274c16.832877 0 32.263014 18.235616 32.263014 37.873972 0 19.638356 15.430137 35.068493 35.068493 35.068493s35.068493-15.430137 35.068493-35.068493c0-60.317808-46.290411-108.010959-102.4-108.010959-30.860274 0-58.915068 14.027397-77.150685 37.873973-4.208219-14.027397-18.235616-23.846575-33.665753-23.846575H381.545205c-19.638356 0-35.068493 15.430137-35.068493 35.068493s15.430137 35.068493 35.068493 35.068493h35.068494v342.268493c0 25.249315-15.430137 46.290411-32.263014 46.290411s-32.263014-21.041096-32.263014-46.290411c0-19.638356-15.430137-35.068493-35.068493-35.068493s-35.068493 15.430137-35.068493 35.068493c0 64.526027 46.290411 116.427397 102.4 116.427397s102.4-51.90137 102.4-116.427397V321.227397h37.873973c4.208219 0 8.416438-1.40274 11.221917-1.402739-1.40274 8.416438-2.805479 18.235616-2.805479 26.652054V434.849315c0 53.30411 36.471233 98.191781 85.567123 106.608219 2.805479 1.40274 7.013699 1.40274 9.819178 1.40274 16.832877 0 32.263014 18.235616 32.263014 37.873973v88.372602c0 21.041096-14.027397 37.873973-32.263014 37.873973s-32.263014-18.235616-32.263013-37.873973c0-19.638356-15.430137-35.068493-35.068494-35.068493s-35.068493 15.430137-35.068493 35.068493c0 60.317808 46.290411 108.010959 102.4 108.010959s102.4-49.09589 102.4-108.010959v-88.372602c0-53.30411-36.471233-98.191781-85.567123-106.60822-2.805479-1.40274-7.013699-1.40274-9.819178-1.402739-16.832877 0-32.263014-18.235616-32.263014-37.873973v-88.372603c0-21.041096 14.027397-37.873973 30.860274-37.873972z" p-id="13819" fill="#13227a"></path></svg>