<?xml version="1.0" standalone="no"?><!DOCTYPE svg PUBLIC "-//W3C//DTD SVG 1.1//EN" "http://www.w3.org/Graphics/SVG/1.1/DTD/svg11.dtd"><svg t="1591286577992" class="icon" viewBox="0 0 1024 1024" version="1.1" xmlns="http://www.w3.org/2000/svg" p-id="8838" xmlns:xlink="http://www.w3.org/1999/xlink" width="200" height="200"><defs><style type="text/css"></style></defs><path d="M329 103.8c16.5 0 29.9 13.4 29.9 29.9v247.8c0 16.5-13.4 29.9-29.9 29.9H81.2c-16.5 0-29.9-13.4-29.9-29.9V133.7c0-16.5 13.4-29.9 29.9-29.9H329m0-51.2H81.2C36.3 52.6 0 88.9 0 133.7v247.8c0 44.9 36.3 81.2 81.2 81.2H329c44.9 0 81.2-36.3 81.2-81.2V133.7c0-44.8-36.4-81.1-81.2-81.1zM746.4 60c11.7-11.7 30.6-11.7 42.3 0L964 235.3c11.7 11.7 11.7 30.6 0 42.3L788.7 452.8c-11.7 11.7-30.6 11.7-42.3 0L571.2 277.6c-11.7-11.7-11.7-30.6 0-42.3L746.4 60m-36.2-36.2L535 199c-31.7 31.7-31.7 83.1 0 114.8L710.2 489c31.7 31.7 83.1 31.7 114.8 0l175.2-175.2c31.7-31.7 31.7-83.1 0-114.8L825 23.8c-31.7-31.7-83.1-31.7-114.8 0zM329 665.1c16.5 0 29.9 13.4 29.9 29.9v247.8c0 16.5-13.4 29.9-29.9 29.9H81.2c-16.5 0-29.9-13.4-29.9-29.9V695c0-16.5 13.4-29.9 29.9-29.9H329m0-51.3H81.2C36.3 613.8 0 650.2 0 695v247.8c0 44.9 36.3 81.2 81.2 81.2H329c44.9 0 81.2-36.3 81.2-81.2V695c0-44.8-36.4-81.2-81.2-81.2zM890.3 665.1c16.5 0 29.9 13.4 29.9 29.9v247.8c0 16.5-13.4 29.9-29.9 29.9H642.4c-16.5 0-29.9-13.4-29.9-29.9V695c0-16.5 13.4-29.9 29.9-29.9h247.9m0-51.3H642.4c-44.9 0-81.2 36.3-81.2 81.2v247.8c0 44.9 36.3 81.2 81.2 81.2h247.8c44.9 0 81.2-36.3 81.2-81.2V695c0-44.8-36.3-81.2-81.1-81.2z" p-id="8839" fill="#ff6348"></path></svg>